<svg width="25" height="24" viewBox="0 0 25 24" fill="none" xmlns="http://www.w3.org/2000/svg">
<path d="M12.6258 20.6616C12.634 19.7663 12.2856 18.9048 11.6573 18.2669C11.0291 17.6289 10.173 17.2674 9.27768 17.2618C8.38254 17.2564 7.52195 17.6074 6.88594 18.2375C6.24997 18.8677 5.89101 19.7251 5.8882 20.6202C5.8854 21.5156 6.23918 22.3751 6.87126 23.0092C7.50313 23.643 8.36162 23.9996 9.25698 23.9996C10.145 23.9996 10.9972 23.6488 11.6282 23.0238C12.2591 22.3986 12.6176 21.5496 12.6258 20.6616ZM7.77329 20.6616C7.7651 20.2565 7.91967 19.865 8.20231 19.5747C8.48494 19.2843 8.87216 19.1193 9.27726 19.1165C9.68256 19.1139 10.0719 19.2737 10.3584 19.5602C10.645 19.8467 10.8047 20.2361 10.8019 20.6412C10.7991 21.0465 10.6342 21.4337 10.3438 21.7163C10.0536 21.9987 9.66207 22.1533 9.25702 22.1451C8.86357 22.1451 8.48607 21.9888 8.20796 21.7107C7.92963 21.4324 7.77329 21.0551 7.77329 20.6616Z" fill="black"/>
<path d="M21.9286 20.6622C21.9286 19.7768 21.577 18.9278 20.9509 18.3019C20.3251 17.6758 19.4761 17.3242 18.5907 17.3242C17.7055 17.3242 16.8565 17.6758 16.2304 18.3019C15.6045 18.9278 15.2527 19.7768 15.2527 20.6622C15.2527 21.5474 15.6045 22.3964 16.2304 23.0225C16.8565 23.6483 17.7055 24.0002 18.5907 24.0002C19.4761 24.0002 20.3251 23.6483 20.9509 23.0225C21.577 22.3964 21.9286 21.5474 21.9286 20.6622ZM17.1073 20.6622C17.1152 20.2711 17.2739 19.8984 17.5505 19.622C17.8271 19.3454 18.1999 19.1865 18.5907 19.1787C18.9842 19.1787 19.3617 19.335 19.6398 19.6131C19.9181 19.8912 20.0744 20.2687 20.0744 20.6622C20.0828 21.0582 19.9293 21.4405 19.6493 21.7205C19.3692 22.0006 18.9868 22.1543 18.5907 22.1457C18.1973 22.1457 17.82 21.9894 17.5419 21.7113C17.2636 21.4329 17.1073 21.0557 17.1073 20.6622Z" fill="black"/>
<path d="M23.814 5.02321H5.82626L5.11524 1.37611C5.0704 1.19695 4.97769 1.03332 4.84705 0.902677C4.7164 0.77203 4.55277 0.679326 4.37362 0.634484L1.12835 0.0164042V0.0161886C0.8828 -0.0295159 0.629051 0.0224404 0.421253 0.160848C0.213427 0.299471 0.0679062 0.513765 0.015729 0.758011C-0.0293291 0.9999 0.0232744 1.24977 0.162547 1.45264C0.301599 1.65551 0.515679 1.79478 0.757557 1.83983L3.41554 2.33418L5.67167 13.7079V13.7081C5.82776 14.4801 6.24472 15.1747 6.85247 15.6757C7.46045 16.1765 8.22208 16.4531 9.00965 16.4588H19.1471C19.884 16.4618 20.6018 16.2253 21.1928 15.7851C21.7837 15.3446 22.2155 14.7241 22.4231 14.017L24.7103 6.16672C24.7814 5.88926 24.7247 5.59434 24.5557 5.3632C24.3742 5.14114 24.1004 5.01567 23.8139 5.02321H23.814ZM20.6306 13.5226C20.5465 13.849 20.3538 14.137 20.0841 14.3392C19.8144 14.5414 19.4841 14.6458 19.1471 14.6352H9.00969C8.65333 14.6352 8.30817 14.5121 8.03199 14.2868C7.75604 14.0615 7.56654 13.7479 7.49517 13.3988L6.19709 6.87749H22.5777L20.6306 13.5226Z" fill="black"/>
</svg>
