<svg width="153" height="28" viewBox="0 0 153 28" fill="none" xmlns="http://www.w3.org/2000/svg">
<path d="M150.645 0.00350165C149.67 0.0867215 148.925 0.90983 148.94 1.88831V25.1909C148.925 26.1696 149.67 26.9931 150.645 27.0763C151.145 27.1072 151.637 26.93 152.002 26.5865C152.367 26.243 152.575 25.7638 152.575 25.2623L152.575 1.81754C152.575 1.31592 152.368 0.836615 152.002 0.493096C151.637 0.149579 151.145 -0.0276042 150.645 0.00350165Z" fill="black"/>
<path d="M51.7013 0.194854C50.7936 -0.259606 49.6893 0.107972 49.235 1.01581L39.0791 21.3098C39.0774 21.3132 39.074 21.3153 39.0702 21.3153C39.0664 21.3153 39.063 21.3132 39.0613 21.3098L28.9055 1.01582C28.4378 0.133735 27.3515 -0.213665 26.4587 0.233368C25.566 0.680401 25.1934 1.75835 25.6196 2.66123L37.3306 26.0646C37.6421 26.6876 38.2791 27.081 38.9757 27.0804C39.0069 27.0804 39.0386 27.0766 39.0701 27.0752C39.1015 27.0737 39.1333 27.0804 39.1647 27.0804C39.8613 27.0809 40.4983 26.6876 40.8098 26.0646L52.5223 2.66123C52.9766 1.75345 52.609 0.649277 51.7013 0.194854Z" fill="black"/>
<path d="M110.196 0.185685C109.218 0.269756 108.472 1.09458 108.487 2.07515V19.8617C108.487 19.866 108.484 19.8699 108.48 19.8714C108.476 19.8728 108.472 19.8713 108.469 19.8678L93.7816 0.713092C93.2057 -0.0366085 92.1525 -0.222166 91.3551 0.285576C90.8214 0.636522 90.5044 1.23614 90.5149 1.87479V25.1873C90.5004 26.1677 91.2463 26.9925 92.2232 27.0765C92.725 27.1076 93.2172 26.93 93.5835 26.5857C93.9498 26.2414 94.1575 25.761 94.1575 25.2584V7.21875C94.1577 7.21464 94.1603 7.21103 94.1641 7.20967C94.168 7.20831 94.1724 7.20949 94.175 7.21264L108.863 26.3668C109.448 27.1297 110.525 27.307 111.324 26.7718C111.838 26.4173 112.14 25.8298 112.13 25.2059V2.0038C112.13 1.50138 111.922 1.021 111.556 0.676669C111.19 0.332192 110.697 0.154586 110.196 0.185685Z" fill="black"/>
<path d="M141.67 0.000218552H119.659C118.68 -0.0146421 117.856 0.730076 117.773 1.70534C117.742 2.20586 117.92 2.6969 118.263 3.06227C118.607 3.42764 119.086 3.63489 119.587 3.63499L128.802 3.63499C128.807 3.63514 128.811 3.63948 128.812 3.64489L128.811 25.1911C128.797 26.1696 129.541 26.993 130.516 27.0765C131.017 27.1074 131.508 26.9301 131.873 26.5866C132.238 26.2431 132.446 25.7639 132.446 25.2625V3.64489C132.446 3.63964 132.45 3.6353 132.455 3.63499L141.599 3.63499C142.578 3.64954 143.401 2.9049 143.484 1.92987C143.515 1.42929 143.338 0.938212 142.994 0.57283C142.651 0.207447 142.171 0.000232022 141.67 0.000218552Z" fill="black"/>
<path d="M15.3868 1.01493C15.0595 0.361144 14.3757 -0.0363835 13.6456 0.00263147C12.9168 -0.0347318 12.2348 0.362512 11.9078 1.01493L0.194802 24.4192C-0.259568 25.3269 0.107989 26.4312 1.01576 26.8855C1.92354 27.3399 3.02777 26.9724 3.48214 26.0646L6.35944 20.3155C6.36102 20.3121 6.36443 20.31 6.36818 20.31H20.9265C20.9302 20.31 20.9336 20.3121 20.9352 20.3155L23.8125 26.0646C24.2669 26.9723 25.3711 27.3398 26.2787 26.8854C27.1864 26.431 27.5539 25.3269 27.0996 24.4192L15.3868 1.01493ZM7.74887 17.5387L13.6386 5.77033C13.6402 5.76691 13.6436 5.76472 13.6473 5.76472C13.6511 5.76472 13.6545 5.76691 13.6561 5.77033L19.5461 17.5387C19.5476 17.5417 19.5475 17.5453 19.5457 17.5482C19.5439 17.551 19.5407 17.5527 19.5373 17.5527H7.75761C7.75423 17.5527 7.75107 17.551 7.74928 17.5482C7.74749 17.5453 7.74733 17.5417 7.74887 17.5387Z" fill="black"/>
<path d="M84.9895 24.5904C84.9678 24.5287 84.9424 24.4683 84.9135 24.4096L74.1277 2.61608C73.5737 1.33533 72.4198 0.413303 71.0483 0.155417C69.6769 -0.102468 68.2669 0.337452 67.2854 1.32945L64.6353 6.37521L58.2752 19.7715C57.2251 21.7955 55.5692 23.1357 53.5964 23.6049L63.335 3.99619C63.3545 3.9563 63.3725 3.91582 63.3891 3.87475C63.5483 3.51692 63.9035 3.28654 64.2951 3.28706C64.332 3.28769 64.3687 3.29041 64.4052 3.29522L66.007 0.44617C64.9808 -0.0113963 63.8141 -0.0388224 62.7675 0.370021C61.721 0.778864 60.8818 1.5899 60.4376 2.62191L49.6404 24.3653C49.6238 24.3965 49.6084 24.4282 49.5938 24.4611C49.3539 24.9922 49.3902 25.6073 49.6908 26.1066C49.9914 26.6059 50.5181 26.9257 51.0998 26.9621C51.3936 26.9866 51.6909 26.9988 51.9848 26.9988C55.8502 26.9988 59.2715 24.8388 61.1356 21.2198C61.1435 21.2043 61.1514 21.1889 61.1586 21.1729L67.2272 8.38902L67.2289 8.38494L67.2828 8.27195L69.0593 4.53991L69.0567 4.53438L69.324 3.97115C69.3352 3.94746 69.3458 3.92368 69.3557 3.8998C69.5095 3.52887 69.8715 3.28705 70.2731 3.28705C70.6746 3.28705 71.0366 3.52887 71.1905 3.8998C71.2036 3.93212 71.2196 3.96416 71.2338 3.99561L80.938 23.604C78.9792 23.1334 77.3315 21.7941 76.2828 19.7721L69.8962 6.30298L68.1329 10.0644L73.3988 21.1706C73.4064 21.1863 73.4142 21.2023 73.4221 21.218C75.3151 24.891 78.6397 26.9971 82.5464 26.9971C82.8549 26.9971 83.1671 26.9834 83.4743 26.9566C83.6688 26.9399 83.8587 26.8876 84.0343 26.8023C84.8887 26.4339 85.3075 25.4632 84.9892 24.589" fill="black"/>
</svg>
